<?xml version="1.0" encoding="UTF-8" standalone="no"?>
<!-- Created with Inkscape (http://www.inkscape.org/) -->

<svg
   width="210mm"
   height="297mm"
   viewBox="0 0 210 297"
   version="1.1"
   id="svg1"
   inkscape:version="1.3 (0e150ed6c4, 2023-07-21)"
   sodipodi:docname="logo.svg"
   xmlns:inkscape="http://www.inkscape.org/namespaces/inkscape"
   xmlns:sodipodi="http://sodipodi.sourceforge.net/DTD/sodipodi-0.dtd"
   xmlns="http://www.w3.org/2000/svg"
   xmlns:svg="http://www.w3.org/2000/svg">
  <sodipodi:namedview
     id="namedview1"
     pagecolor="#ffffff"
     bordercolor="#999999"
     borderopacity="1"
     inkscape:showpageshadow="0"
     inkscape:pageopacity="0"
     inkscape:pagecheckerboard="0"
     inkscape:deskcolor="#d1d1d1"
     inkscape:document-units="mm"
     inkscape:zoom="4"
     inkscape:cx="618.75"
     inkscape:cy="248.125"
     inkscape:window-width="3440"
     inkscape:window-height="1371"
     inkscape:window-x="0"
     inkscape:window-y="0"
     inkscape:window-maximized="1"
     inkscape:current-layer="layer1" />
  <defs
     id="defs1" />
  <g
     inkscape:label="Layer 1"
     inkscape:groupmode="layer"
     id="layer1">
    <rect
       style="fill:#ffffff;fill-opacity:1;stroke-width:4.57999;stroke-linecap:square;stroke-dasharray:none;paint-order:stroke fill markers"
       id="rect4"
       width="39.198353"
       height="38.733997"
       x="159.08604"
       y="34.805923"
       inkscape:export-filename="logo.png"
       inkscape:export-xdpi="144.601"
       inkscape:export-ydpi="144.601" />
    <rect
       style="fill:#000000;fill-opacity:1;stroke-width:0.465;stroke-linecap:square;paint-order:stroke fill markers"
       id="rect1"
       width="35.69862"
       height="4.5806074"
       x="11.482837"
       y="12.260482" />
    <rect
       style="fill:#000000;fill-opacity:1;stroke-width:0.465;stroke-linecap:square;paint-order:stroke fill markers"
       id="rect1-5"
       width="35.698616"
       height="4.5806074"
       x="11.482838"
       y="40.201965" />
    <path
       style="fill:none;stroke:#000000;stroke-width:4.58;stroke-linecap:butt;stroke-linejoin:miter;stroke-dasharray:none;stroke-opacity:1"
       d="m 26.609331,21.132087 c 0,0 -10.240273,-2.370895 -10.240273,7.423179 0,9.959652 10.478806,7.312763 10.478806,7.312763"
       id="path1"
       sodipodi:nodetypes="csc" />
    <path
       id="path2-2"
       style="fill:none;stroke:#000000;stroke-width:4.62656;stroke-linecap:butt;stroke-linejoin:miter;stroke-dasharray:none;stroke-opacity:1"
       d="M 36.948205,20.871155 V 38.48518 M 29.332147,20.871155 h 15.232117" />
    <path
       id="rect1-7"
       style="fill:#000000;fill-opacity:1;stroke-width:0.465;stroke-linecap:square;paint-order:stroke fill markers"
       d="m 82.646635,18.558557 v 4.625041 h 5.302519 v 1.311548 h 4.627107 v -1.311548 h 5.302519 v -4.625041 z m 9.929626,5.936589 v 4.580599 h 5.302002 v -4.580599 z m 0,4.580599 h -4.627107 v 1.281058 h 4.627107 z m 0,1.281058 v 4.580599 h 5.302002 v -4.580599 z m 0,4.580599 h -4.627107 v 3.547071 h 4.627107 z m -4.627107,0 v -4.580599 l -16.195214,0 c 0.19299,0.970946 0.538346,1.604863 0.923975,2.057239 0.586227,0.687698 1.384482,1.080572 2.356962,1.297079 1.94496,0.433013 4.181657,-0.06253 4.181657,-0.06253 l 0.325561,1.28881 z m -8.407059,0 H 68.848174 c 0.112061,0.152766 0.224157,0.305525 0.345199,0.447518 1.378538,1.617154 3.198486,2.430003 4.845699,2.796729 3.294422,0.733449 6.29884,-0.09354 6.29884,-0.09354 z m -10.693921,0 c -0.886055,-1.207901 -1.48398,-2.750041 -1.720308,-4.580599 h -2.737301 v 4.580599 z m -1.720308,-4.580599 h 4.626074 c -0.07447,-0.374655 -0.128106,-0.794851 -0.149862,-1.281058 h -4.5868 c 0.01528,0.443349 0.0571,0.866767 0.110588,1.281058 z m -0.110588,-1.281058 c -0.0059,-0.171588 -0.0093,-0.345065 -0.0093,-0.520899 0,-1.517279 0.225342,-2.875781 0.637171,-4.0597 h -3.254582 v 4.580599 z m 0.627869,-4.580599 h 5.225004 c 0.552877,-0.555621 1.261199,-0.894649 2.096513,-1.100708 1.891898,-0.466708 4.054533,-0.03101 4.054533,-0.03101 l 1.033528,-4.463294 c 0,0 -0.740337,-0.186985 -1.883089,-0.274918 -0.285688,-0.02198 -0.59623,-0.03787 -0.927075,-0.04289 -0.992533,-0.01505 -2.164922,0.0662 -3.375505,0.364836 -1.614108,0.398181 -3.391165,1.237693 -4.732527,2.851505 -0.62664,0.753919 -1.130311,1.65847 -1.491382,2.696477 z m 5.225004,0 c -0.07323,0.07359 -0.144196,0.150084 -0.211873,0.23151 -0.578682,0.696217 -1.070219,1.778735 -1.070219,3.82819 0,0.184524 0.0084,0.351647 0.01602,0.520899 l 16.345076,0 v -4.580599 z"
       sodipodi:nodetypes="ccccccccccccccccccccccccccccccccsscccccsscccccccccccccsccccccsccsssscccscccc" />
    <path
       id="rect1-2"
       style="stroke-width:0.465;stroke-linecap:square;paint-order:stroke fill markers"
       d="m 119.08269,12.26033 h 31.31588 v 4.580608 h -31.31588 z"
       sodipodi:nodetypes="ccccc" />
    <path
       id="path1-1"
       style="color:#000000;fill:#000000;-inkscape-stroke:none"
       d="m 119.08334,18.580778 v 4.624524 l 1.19424,0.001 c 0.27118,-0.513895 0.58343,-0.984898 0.93483,-1.407666 1.34136,-1.613816 3.11789,-2.453324 4.73201,-2.851505 0.98686,-0.243442 1.94724,-0.341575 2.80655,-0.361735 z m 10.35286,0.0052 c 0.28651,0.0066 0.56019,0.01995 0.81132,0.03927 1.14276,0.08793 1.88257,0.274918 1.88257,0.274918 l -0.99839,4.313949 9.3388,0.0083 V 38.52323 h 4.62504 V 23.222355 h 5.30303 v -4.625041 z m 1.6955,4.628141 -1.24333,-0.001 c 0.71377,0.05319 1.20871,0.150379 1.20871,0.150379 z m -2.92592,-0.002 -7.9282,-0.0057 c -0.76398,1.447785 -1.19424,3.246913 -1.19424,5.348511 0,2.891469 0.80479,5.212918 2.18333,6.830074 1.37855,1.617156 3.20055,2.430003 4.84777,2.796729 3.29442,0.733451 6.29677,-0.09354 6.29677,-0.09354 l -1.12086,-4.439522 c 0,0 -2.23462,0.495544 -4.17959,0.06253 -0.97248,-0.216507 -1.77125,-0.609379 -2.35748,-1.297079 -0.58623,-0.687699 -1.08986,-1.770848 -1.08986,-3.859196 0,-2.049459 0.49154,-3.131971 1.07022,-3.82819 0.57868,-0.696218 1.36244,-1.098865 2.30839,-1.332218 0.38365,-0.09464 1.16375,-0.182399 1.16375,-0.182418 z"
       sodipodi:nodetypes="cccsscccscccccccccccccscccsssccssscs" />
    <path
       id="rect3"
       style="stroke-width:0.465;stroke-linecap:square;paint-order:stroke fill markers"
       d="M 39.293005 131.26682 L 15.691697 131.26645 L 15.691697 135.8472 L 43.873755 135.84757 L 39.293005 131.26682 z "
       transform="rotate(-45)" />
    <path
       style="color:#000000;fill:#000000;-inkscape-stroke:none"
       d="m 92.739181,65.103516 c -1.142754,-0.08793 -2.68862,-0.07787 -4.302734,0.320312 -1.614114,0.398181 -3.391054,1.239697 -4.732422,2.853516 -1.341368,1.613818 -2.128906,3.908289 -2.128906,6.755859 0,2.891472 0.807002,5.210968 2.185547,6.828125 1.378544,1.617158 3.198487,2.430149 4.845703,2.796875 3.294431,0.733452 6.298828,-0.09375 6.298828,-0.09375 L 93.78215,80.125 c 0,0 -2.234721,0.495515 -4.179687,0.0625 -0.972483,-0.216508 -1.771192,-0.609174 -2.357422,-1.296875 -0.58623,-0.687701 -1.089844,-1.769072 -1.089844,-3.857422 0,-2.049462 0.491631,-3.131905 1.070313,-3.828125 0.578681,-0.69622 1.362642,-1.10063 2.308593,-1.333984 1.891904,-0.466708 4.054688,-0.03125 4.054688,-0.03125 l 1.033203,-4.460938 c 0,0 -0.740058,-0.187457 -1.882813,-0.27539 z"
       id="path1-3" />
    <path
       style="color:#000000;fill:#000000;-inkscape-stroke:none"
       d="m 97.224609,65.035156 v 4.626953 h 5.302731 v 15.300782 h 4.62696 V 69.662109 h 5.30273 v -4.626953 z"
       id="path2-2-7" />
    <path
       id="path3"
       style="stroke-width:0.465;stroke-linecap:square;paint-order:stroke fill markers"
       d="M 45.332827 137.30664 L 17.151135 137.30664 L 21.731884 141.88739 L 49.913576 141.88739 L 45.332827 137.30664 z "
       transform="rotate(-45)" />
    <path
       id="path3-29"
       style="stroke-width:0.465;stroke-linecap:square;paint-order:stroke fill markers"
       d="m 166.26398,94.814207 -19.92747,19.927463 h 6.47816 l 19.92746,-19.927462 z" />
    <path
       id="path3-2-9"
       style="stroke-width:0.465;stroke-linecap:square;paint-order:stroke fill markers"
       d="m 174.96569,94.814207 -19.92747,19.927463 h 6.47816 l 19.92747,-19.927462 z" />
    <path
       id="path1-3-3"
       style="color:#000000;fill:#000000;-inkscape-stroke:none"
       d="M 36.500614 61.040202 L 32.494657 65.046159 L 38.972815 65.046159 L 42.978772 61.040202 L 36.500614 61.040202 z M 38.972815 65.046159 L 34.345707 69.673267 L 36.621537 69.673267 L 41.248645 65.046159 L 38.972815 65.046159 z M 41.248645 65.046159 L 47.726803 65.046159 L 51.73276 61.040202 L 45.254602 61.040202 L 41.248645 65.046159 z M 47.726803 65.046159 L 43.099695 69.673267 L 47.726803 69.673267 L 47.726803 65.046159 z M 43.099695 69.673267 L 42.424284 69.673267 L 42.424284 70.348678 L 43.099695 69.673267 z M 42.424284 70.348678 L 37.797176 74.975785 L 37.797176 84.974141 L 42.424284 84.974141 L 42.424284 70.348678 z M 37.797176 74.975785 L 37.797176 69.673267 L 36.621537 69.673267 L 25.944153 80.350651 C 27.554364 80.467725 29.051973 80.136194 29.051973 80.136194 L 29.77596 82.997001 L 37.797176 74.975785 z M 29.77596 82.997001 L 27.839644 84.933317 C 29.238786 84.833061 30.175419 84.575716 30.175419 84.575716 L 29.77596 82.997001 z M 27.839644 84.933317 C 26.731171 85.012745 25.332852 84.993467 23.876579 84.66925 C 23.31864 84.545036 22.74083 84.368206 22.167122 84.127681 L 21.321179 84.973625 L 17.899683 88.395121 L 24.37784 88.395121 L 27.799337 84.973625 L 27.839644 84.933317 z M 22.167122 84.127681 L 25.944153 80.350651 C 25.58735 80.324709 25.225182 80.277269 24.872384 80.198722 C 24.586364 80.135047 24.317585 80.053537 24.062614 79.95636 L 20.683492 83.335482 C 21.164248 83.655893 21.664052 83.916773 22.167122 84.127681 z M 20.683492 83.335482 C 20.093879 82.942515 19.533037 82.461599 19.03088 81.872522 C 18.520549 81.27386 18.088968 80.578129 17.747237 79.793579 L 12.567192 84.973625 L 9.145695 88.395121 L 15.623853 88.395121 L 19.045349 84.973625 L 20.683492 83.335482 z M 17.747237 79.793579 L 21.471558 76.069259 C 21.441816 75.756973 21.425049 75.417572 21.425049 75.044515 C 21.425049 72.995053 21.917103 71.912541 22.495785 71.216325 C 23.074462 70.520109 23.858224 70.115389 24.804171 69.882039 C 25.875806 69.617682 27.021492 69.644686 27.824658 69.716158 L 29.211137 68.329679 L 29.892232 65.390324 C 29.892232 65.390324 29.151894 65.202818 28.009143 65.114889 L 28.009143 65.114372 C 26.866393 65.026442 25.320673 65.036584 23.706563 65.434766 C 22.092457 65.832943 20.315396 66.674524 18.974036 68.288338 C 17.632672 69.902144 16.844967 72.196957 16.844967 75.044515 C 16.844967 76.865568 17.165861 78.458842 17.747237 79.793579 z M 29.211137 68.329679 L 28.858704 69.851034 C 28.858704 69.851034 28.439427 69.770865 27.824658 69.716158 L 21.471558 76.069259 C 21.608306 77.505118 22.033398 78.336793 22.514905 78.901644 C 22.928714 79.387079 23.450672 79.723128 24.062614 79.95636 L 34.345707 69.673267 L 32.494657 69.673267 L 32.494657 65.046159 L 29.211137 68.329679 z " />
    <path
       id="rect1-9"
       style="stroke-width:0.465;stroke-linecap:square;paint-order:stroke fill markers"
       d="M 178.68573 44.209188 L 178.68573 48.835779 L 183.98825 48.835779 L 183.98825 50.248096 L 188.61536 50.248096 L 188.61536 48.835779 L 193.91788 48.835779 L 193.91788 44.209188 L 178.68573 44.209188 z M 188.61536 50.248096 L 188.61536 54.828695 L 193.91685 54.828695 L 193.91685 50.248096 L 188.61536 50.248096 z M 188.61536 54.828695 L 183.98825 54.828695 L 183.98825 56.166081 L 188.61536 56.166081 L 188.61536 54.828695 z M 188.61536 56.166081 L 188.61536 60.74668 L 193.91685 60.74668 L 193.91685 56.166081 L 188.61536 56.166081 z M 188.61536 60.74668 L 183.98825 60.74668 L 183.98825 64.136654 L 188.61536 64.136654 L 188.61536 60.74668 z M 183.98825 60.74668 L 183.98825 56.166081 L 178.68522 56.166081 L 178.68522 60.74668 L 183.98825 60.74668 z M 183.98825 54.828695 L 183.98825 50.248096 L 178.68522 50.248096 L 178.68522 54.828695 L 183.98825 54.828695 z "
       inkscape:export-filename="logo.png"
       inkscape:export-xdpi="144.601"
       inkscape:export-ydpi="144.601" />
    <path
       style="color:#000000;fill:#000000;-inkscape-stroke:none"
       d="m 174.59766,44.277344 c -1.14276,-0.08793 -2.69058,-0.07592 -4.30469,0.322265 -1.61411,0.398181 -3.39106,1.237744 -4.73242,2.851563 -1.34137,1.613818 -2.12891,3.908289 -2.12891,6.755859 0,2.891471 0.807,5.212921 2.18555,6.830078 1.37854,1.617158 3.19849,2.428196 4.8457,2.794922 3.29443,0.733452 6.29883,-0.0918 6.29883,-0.0918 l -1.1211,-4.441406 c 0,0 -2.23667,0.497468 -4.18164,0.06445 -0.97248,-0.216507 -1.77119,-0.611127 -2.35742,-1.298828 -0.58623,-0.6877 -1.08984,-1.769072 -1.08984,-3.857422 0,-2.049462 0.49358,-3.131905 1.07226,-3.828125 0.57869,-0.696219 1.36069,-1.10063 2.30664,-1.333984 1.89191,-0.466708 4.05469,-0.03125 4.05469,-0.03125 l 1.03321,-4.460938 c 0,0 -0.73811,-0.187457 -1.88086,-0.27539 z"
       id="path1-6" />
  </g>
</svg>
